<svg width="92" height="112" viewBox="0 0 92 112" fill="none" xmlns="http://www.w3.org/2000/svg">
<g id="lines">
<rect id="Rectangle 1" x="1" y="1" width="90" height="110" rx="14" fill="#D9D9D9" stroke="black" stroke-width="2"/>
<path id="Rectangle 2" d="M29.5 10H23C15.268 10 9 16.268 9 24V88C9 95.732 15.268 102 23 102H69C76.732 102 83 95.732 83 88V79V73.25V70.375M83 56V58.875V60.3125V61.0312M83 67.5V61.75" stroke="black"/>
<circle id="Ellipse 1" cx="31" cy="29" r="9.5" fill="#D9D9D9" stroke="black"/>
<path id="Ellipse 2" d="M46 54C46 51.5836 45.612 49.1908 44.8582 46.9584C44.1044 44.7259 42.9995 42.6974 41.6066 40.9888C40.2137 39.2801 38.5601 37.9247 36.7403 37M25.2597 37C23.4399 37.9247 21.7863 39.2801 20.3934 40.9888C19.0005 42.6974 17.8956 44.7259 17.1418 46.9584C16.388 49.1908 16 51.5836 16 54" stroke="black"/>
<line id="Line 1" x1="15" y1="60.5" x2="78" y2="60.5" stroke="black"/>
<path id="Line 2" d="M15 70.5H30.75M78 70.5H46.5H38.625" stroke="black"/>
<path id="Line 3" d="M15 80.5H30.75H38.625H42.5625M78 80.5H70.125H66.1875H64.2188M46.5 80.5H54.375H58.3125H60.2812H62.25" stroke="black"/>
<path id="Line 4" d="M15 90.5H46.5H50.4375H52.4062M78 90.5H62.25H58.3125H56.3438" stroke="black"/>
<line id="Line 5" x1="78" y1="52.5" x2="53" y2="52.5" stroke="black"/>
<line id="Line 6" x1="78" y1="42.5" x2="53" y2="42.5" stroke="black"/>
<line id="Line 7" x1="78" y1="33.5" x2="53" y2="33.5" stroke="black"/>
<line id="Line 8" x1="78" y1="23.5" x2="53" y2="23.5" stroke="black"/>
</g>
</svg>
